<svg xmlns="http://www.w3.org/2000/svg" width="24" height="24" viewBox="0 0 24 24" fill="none" stroke="currentColor" stroke-width="2" stroke-linecap="round" stroke-linejoin="round"><circle cx="9" cy="9.2" r="4.2"></circle><line x1="13.2" y1="9.2" x2="15.6" y2="9.2"></line><line x1="11.97" y1="12.17" x2="13.67" y2="13.87"></line><line x1="9" y1="13.4" x2="9" y2="15.8"></line><line x1="6.03" y1="12.17" x2="4.33" y2="13.87"></line><line x1="4.8" y1="9.2" x2="2.4" y2="9.2"></line><line x1="6.03" y1="6.23" x2="4.33" y2="4.53"></line><line x1="9" y1="5" x2="9" y2="2.6"></line><line x1="11.97" y1="6.23" x2="13.67" y2="4.53"></line><circle cx="17.5" cy="17.5" r="3.2"></circle><line x1="20.7" y1="17.5" x2="22.6" y2="17.5"></line><line x1="19.1" y1="20.27" x2="20.05" y2="21.9"></line><line x1="15.9" y1="20.27" x2="14.95" y2="21.9"></line><line x1="14.3" y1="17.5" x2="12.4" y2="17.5"></line><line x1="15.9" y1="14.73" x2="14.95" y2="13.1"></line><line x1="19.1" y1="14.73" x2="20.05" y2="13.1"></line></svg>